<?xml version="1.0" standalone="no"?>
<!DOCTYPE svg PUBLIC "-//W3C//DTD SVG 1.1//EN" "http://www.w3.org/Graphics/SVG/1.1/DTD/svg11.dtd" >
<svg xmlns="http://www.w3.org/2000/svg" xmlns:xlink="http://www.w3.org/1999/xlink" version="1.1">
<metadata>
Created by FontForge 20170731 at Fri Feb  8 00:35:53 2002
 By Aleksey,,,
Copyright (c) 1993, 1994, 2001 Adobe Systems Incorporated.  All Rights Reserved.
</metadata>
<defs>
<font id="ITCAvantGardeStd-DemiCn" horiz-adv-x="542" >
  <font-face 
    font-family="ITC Avant Garde Std Bk Cn"
    font-weight="600"
    font-stretch="condensed"
    units-per-em="1000"
    panose-1="2 11 6 6 2 2 2 2 2 4"
    ascent="740"
    descent="-260"
    x-height="559"
    cap-height="740"
    bbox="-162 -250 1001 987"
    underline-thickness="50"
    underline-position="-250"
    unicode-range="U+0020-FB02"
  />
<missing-glyph horiz-adv-x="500" 
d="M0 0v700h500v-700h-500zM250 395l170 255h-340zM280 350l170 -255v510zM80 50h340l-170 255zM50 605v-510l170 255z" />
    <glyph glyph-name="fi" unicode="fi" horiz-adv-x="507" 
d="M327 457h-139v-457h-108v457h-55v102h55v30q0 164 190 164v-94q-37 -1 -59.5 -17t-22.5 -64v-19h248v-559h-109v457zM436 633h-109v107h109v-107z" />
    <glyph glyph-name="fl" unicode="fl" horiz-adv-x="507" 
d="M327 457h-139v-457h-108v457h-55v102h55v30q0 164 190 164v-94q-37 -1 -59.5 -17t-22.5 -64v-19h139v181h109v-740h-109v457z" />
    <glyph glyph-name=".notdef" horiz-adv-x="500" 
d="M0 0v700h500v-700h-500zM250 395l170 255h-340zM280 350l170 -255v510zM80 50h340l-170 255zM50 605v-510l170 255z" />
    <glyph glyph-name=".null" horiz-adv-x="0" 
 />
    <glyph glyph-name="nonmarkingreturn" horiz-adv-x="333" 
 />
    <glyph glyph-name="space" unicode=" " horiz-adv-x="264" 
 />
    <glyph glyph-name="exclam" unicode="!" horiz-adv-x="267" 
d="M193 740v-544h-119v544h119zM193 135v-135h-119v135h119z" />
    <glyph glyph-name="quotedbl" unicode="&#x22;" horiz-adv-x="310" 
d="M120 452h-101v288h101v-288zM291 452h-101v288h101v-288z" />
    <glyph glyph-name="numbersign" unicode="#" 
d="M391 224l-23 -175h-85l23 175h-105l-24 -175h-84l24 175h-98v80h109l18 129h-99v79h109l23 171h85l-23 -171h106l23 171h83l-22 -171h92v-79h-103l-18 -129h93v-80h-104zM319 304l17 129h-106l-17 -129h106z" />
    <glyph glyph-name="dollar" unicode="$" 
d="M321 795v-74q71 -13 109 -64.5t41 -121.5h-118q-5 38 -30.5 61t-56.5 23q-33 0 -56 -22.5t-23 -60.5q0 -14 4 -25.5t13 -21t17.5 -16.5t25 -15.5t27 -13t32 -13t31.5 -12.5q32 -14 54.5 -28t47.5 -38t38 -60t13 -82q0 -80 -46 -138t-123 -62v-84h-95v84
q-79 4 -126.5 64.5t-47.5 143.5h122q2 -50 30.5 -78t73.5 -28q38 0 63.5 28t25.5 70q0 15 -4 27.5t-8.5 22t-16 19t-18.5 15t-24.5 13.5t-25 11.5t-29 11.5t-28.5 11q-31 13 -53 25.5t-45 34.5t-35.5 55t-12.5 76q0 77 42.5 129t116.5 59v74h95z" />
    <glyph glyph-name="percent" unicode="%" horiz-adv-x="848" 
d="M39 570v1q0 83 48 132t124 49q77 0 125 -49t48 -133t-48 -133t-125 -49q-76 0 -124 49.5t-48 132.5zM124 570v-1q0 -46 24.5 -73t62.5 -27t63 27.5t25 73.5q0 47 -25 74.5t-63 27.5t-62.5 -27.5t-24.5 -74.5zM463 170v1q0 83 48.5 132t124.5 49t124.5 -49.5t48.5 -132.5
q0 -84 -48 -133t-125 -49t-125 49t-48 133zM549 170v-1q0 -46 24.5 -73.5t62.5 -27.5t62.5 27.5t24.5 74.5q0 46 -24.5 73.5t-62.5 27.5t-62.5 -27.5t-24.5 -73.5zM667 749l-389 -758h-94l389 758h94z" />
    <glyph glyph-name="ampersand" unicode="&#x26;" horiz-adv-x="656" 
d="M497 431h121l-118 -224l111 -137l-84 -73l-86 110q-89 -121 -190 -121q-97 0 -156.5 63t-59.5 153q0 83 40 140.5t103 87.5q-68 74 -69 147q0 81 51.5 129t123.5 48t119.5 -51.5t47.5 -118.5q0 -59 -32.5 -106t-79.5 -73l88 -110zM283 655h-1q-29 0 -46.5 -19.5
t-17.5 -47.5q0 -43 59 -102q65 44 65 98q0 28 -17 49.5t-42 21.5zM369 195l-116 146q-92 -47 -92 -126q0 -46 27.5 -78t72.5 -32q60 0 108 90z" />
    <glyph glyph-name="quotesingle" unicode="'" horiz-adv-x="222" 
d="M162 452h-102v288h102v-288z" />
    <glyph glyph-name="parenleft" unicode="(" horiz-adv-x="367" 
d="M332 745v-113q-82 -57 -129.5 -156t-47.5 -216t47 -215t130 -158v-113q-117 59 -197 190t-80 296t80.5 297t196.5 188z" />
    <glyph glyph-name="parenright" unicode=")" horiz-adv-x="367" 
d="M35 -226v113q82 57 129.5 156t47.5 216t-47 215t-130 158v113q118 -59 198 -189.5t80 -296.5q0 -165 -81 -297t-197 -188z" />
    <glyph glyph-name="asterisk" unicode="*" horiz-adv-x="412" 
d="M250 740l-24 -146l115 93l43 -77l-135 -50l135 -50l-45 -80l-115 95l26 -145h-89l25 147l-112 -97l-46 81l135 51l-135 48l43 77l116 -92l-26 145h89z" />
    <glyph glyph-name="plus" unicode="+" horiz-adv-x="576" 
d="M337 505v-203h197v-99h-197v-203h-99v203h-196v99h196v203h99z" />
    <glyph glyph-name="comma" unicode="," horiz-adv-x="270" 
d="M198 132l-85 -227h-88l70 227h103z" />
    <glyph glyph-name="hyphen" unicode="-" horiz-adv-x="306" 
d="M35 336h235v-106h-235v106z" />
    <glyph glyph-name="period" unicode="." horiz-adv-x="270" 
d="M189 132v-132h-108v132h108z" />
    <glyph glyph-name="slash" unicode="/" horiz-adv-x="278" 
d="M-45 -33l259 782h109l-259 -782h-109z" />
    <glyph glyph-name="zero" unicode="0" 
d="M45 236v268q0 115 62.5 181.5t163.5 66.5t164 -66.5t63 -181.5v-268q0 -115 -63 -181.5t-164 -66.5t-163.5 66.5t-62.5 181.5zM160 497v-254q0 -72 32 -108t79 -36t79.5 36t32.5 108v254q0 72 -32.5 108t-79.5 36t-79 -36t-32 -108z" />
    <glyph glyph-name="one" unicode="1" 
d="M228 0v632h-114v108h229v-740h-115z" />
    <glyph glyph-name="two" unicode="2" 
d="M48 0v119q43 44 199 213q64 66 87.5 106t23.5 86q0 51 -26.5 79t-66.5 28q-96 0 -99 -128h-122q1 124 66 189q59 60 157 60q95 0 155.5 -64.5t60.5 -165.5q0 -100 -69 -187q-51 -64 -206 -222h278v-113h-438z" />
    <glyph glyph-name="three" unicode="3" 
d="M182 543h-124q1 100 59 154.5t154 54.5q92 0 147.5 -52t55.5 -138q0 -115 -99 -151q68 -21 98.5 -74t30.5 -123q0 -99 -61 -162.5t-168 -63.5q-140 0 -204 105q-33 56 -35 133h125q0 -60 31 -93t82 -33q48 0 76 32.5t28 87.5q0 61 -35.5 94.5t-96.5 33.5h-41v108h34
q54 0 82 24.5t28 69.5q0 40 -22 65t-64 25q-40 0 -60 -27t-21 -70z" />
    <glyph glyph-name="four" unicode="4" 
d="M309 0v147h-273v108l269 485h119v-485h69v-108h-69v-147h-115zM144 255h165v312z" />
    <glyph glyph-name="five" unicode="5" 
d="M96 740h369v-102h-260l-16 -175q37 53 116 53q87 0 142 -68t55 -184q0 -130 -59.5 -203t-172.5 -73q-101 0 -157 59.5t-64 170.5h122q2 -50 30 -84t70 -34q106 0 106 155q0 72 -27.5 110.5t-73.5 38.5q-61 0 -90 -70l-117 2z" />
    <glyph glyph-name="six" unicode="6" 
d="M304 740h133l-159 -229q-5 -8 -18 -25.5t-18 -25.5q25 17 57 17q86 0 145 -67t59 -169q0 -108 -63 -180.5t-168 -72.5q-100 0 -160 60q-73 70 -73 198q0 64 21.5 116.5t64.5 116.5zM167 228v-1q0 -61 29.5 -98t75.5 -37q48 0 75.5 38t27.5 103q0 64 -27.5 102t-75.5 38
t-76.5 -38.5t-28.5 -106.5z" />
    <glyph glyph-name="seven" unicode="7" 
d="M59 740h425v-100l-235 -640h-129l235 632h-296v108z" />
    <glyph glyph-name="eight" unicode="8" 
d="M63 555v1q0 85 58.5 140.5t149.5 55.5t150 -55.5t59 -141.5q0 -46 -23 -85t-61 -61q52 -19 82 -71t30 -116q-1 -109 -67 -171.5t-170 -62.5q-103 0 -169.5 63t-67.5 171q1 69 32 117t80 72q-40 20 -61.5 59t-21.5 85zM187 539v-1q0 -40 24.5 -66.5t60.5 -26.5
q35 0 59.5 27t24.5 67q0 43 -25 72t-61 29q-35 0 -59 -29t-24 -72zM161 222v-1q0 -51 31.5 -86t78.5 -35t78.5 35.5t31.5 86.5q0 47 -32 81t-78 34t-78 -34t-32 -81z" />
    <glyph glyph-name="nine" unicode="9" 
d="M238 0h-133l160 229q6 9 18.5 26.5l17.5 24.5q-26 -17 -58 -17q-86 0 -145 67t-59 169q0 108 63 180.5t169 72.5q101 0 159 -60q73 -70 73 -198q0 -64 -21.5 -117t-64.5 -116zM374 512v1q0 61 -29.5 98t-75.5 37q-48 0 -75.5 -38t-27.5 -103q0 -64 27.5 -102t75.5 -38
t76.5 38.5t28.5 106.5z" />
    <glyph glyph-name="colon" unicode=":" horiz-adv-x="270" 
d="M189 500v-132h-108v132h108zM189 132v-132h-108v132h108z" />
    <glyph glyph-name="semicolon" unicode=";" horiz-adv-x="270" 
d="M193 500v-132h-109v132h109zM198 132l-85 -227h-88l70 227h103z" />
    <glyph glyph-name="less" unicode="&#x3c;" horiz-adv-x="576" 
d="M42 302l492 210v-109l-362 -151l362 -150v-109l-492 210v99z" />
    <glyph glyph-name="equal" unicode="=" horiz-adv-x="576" 
d="M42 409h492v-99h-492v99zM42 195h492v-99h-492v99z" />
    <glyph glyph-name="greater" unicode="&#x3e;" horiz-adv-x="576" 
d="M42 102l361 150l-361 151v109l492 -210v-99l-492 -210v109z" />
    <glyph glyph-name="question" unicode="?" horiz-adv-x="491" 
d="M290 192h-119q0 7 -1 42.5t0.5 46.5t5 37t13 44t25.5 37q15 19 47 48t49 52.5t17 50.5q0 41 -24 65t-64 24q-34 0 -58.5 -22.5t-26.5 -67.5q-1 -9 -1 -26h-122v33q4 97 62.5 146.5t150.5 49.5q87 0 148 -58t61 -149q0 -39 -15 -73.5t-31.5 -53.5t-44.5 -46
q-54 -50 -63 -75.5t-9 -104.5zM290 135v-135h-119v135h119z" />
    <glyph glyph-name="at" unicode="@" horiz-adv-x="783" 
d="M617 154h84q-49 -81 -125 -123.5t-164 -42.5q-162 0 -265.5 107t-103.5 273q0 169 103.5 276.5t262.5 107.5q131 0 231 -86t100 -224q0 -64 -19.5 -116.5t-47.5 -84t-62 -53t-61.5 -30t-46.5 -8.5q-53 0 -61 57q-44 -56 -107 -56q-52 0 -93.5 45.5t-41.5 124.5
q0 98 55 172t138 74q75 0 114 -64l11 52h76l-54 -250q-6 -36 -6 -40q-1 -26 21 -26q41 0 77 46t36 132q0 123 -74 190.5t-187 67.5q-119 0 -198 -86.5t-79 -220.5q0 -139 78 -221t209 -82q137 0 200 89zM293 334v-1q0 -41 19.5 -64t51.5 -23q39 0 66 25.5t38 60.5
q13 49 13 60q0 41 -23 64t-54 23q-44 0 -77.5 -44t-33.5 -101z" />
    <glyph glyph-name="A" unicode="A" horiz-adv-x="533" 
d="M171 171l-46 -171h-124l205 740h115l211 -740h-124l-47 171h-190zM329 283l-64 286l-64 -286h128z" />
    <glyph glyph-name="B" unicode="B" horiz-adv-x="534" 
d="M65 0v740h196q99 0 149 -47q55 -47 55 -139q0 -67 -31 -105t-84 -48q146 -36 146 -189q0 -102 -65 -159q-55 -53 -146 -53h-220zM187 632v-192h53q46 0 69 19q30 26 30 79q0 52 -30 75q-24 19 -75 19h-47zM187 332v-224h70q52 0 78 23q36 25 36 86q2 61 -36 90
q-27 25 -81 25h-67z" />
    <glyph glyph-name="C" unicode="C" horiz-adv-x="589" 
d="M428 269h124q-1 -121 -67.5 -202t-186.5 -81q-123 0 -193 98t-70 286q0 186 69 285t194 99q122 0 189 -83.5t65 -209.5h-124q-4 177 -121 177q-147 0 -147 -271q0 -135 40 -200t107 -65q113 0 121 167z" />
    <glyph glyph-name="D" unicode="D" horiz-adv-x="600" 
d="M64 0v740h196q158 0 235 -108q69 -98 69 -262q0 -174 -80 -272t-220 -98h-200zM186 627v-514h76q51 0 87.5 22.5t55 61.5t26.5 81t8 92q0 127 -41 190q-43 67 -140 67h-72z" />
    <glyph glyph-name="E" unicode="E" horiz-adv-x="490" 
d="M70 0v740h355v-113h-233v-187h233v-112h-233v-215h233v-113h-355z" />
    <glyph glyph-name="F" unicode="F" horiz-adv-x="436" 
d="M61 0v740h333v-113h-211v-185h211v-113h-211v-329h-122z" />
    <glyph glyph-name="G" unicode="G" horiz-adv-x="611" 
d="M565 485h-125q0 52 -22 91q-36 65 -106 65q-152 0 -152 -271t152 -271q73 0 106 59q28 49 26 123h-158v113h283v-131q-2 -115 -69.5 -196t-187.5 -81q-139 0 -208 101.5t-69 282.5q0 176 72.5 280t204.5 104q114 0 180.5 -73.5t72.5 -195.5z" />
    <glyph glyph-name="H" unicode="H" horiz-adv-x="587" 
d="M187 0h-122v740h122v-300h213v300h122v-740h-122v328h-213v-328z" />
    <glyph glyph-name="I" unicode="I" horiz-adv-x="252" 
d="M65 0v740h122v-740h-122z" />
    <glyph glyph-name="J" unicode="J" horiz-adv-x="472" 
d="M403 740v-545q0 -59 -17 -101q-25 -54 -75 -81q-47 -27 -107 -27q-87 0 -141 48.5t-58 138.5q0 6 -0.5 18.5t-0.5 18.5h122q0 -2 0.5 -6.5t0.5 -7.5q4 -56 23.5 -76.5t54.5 -20.5q43 0 62 35q14 25 14 83v523h122z" />
    <glyph glyph-name="K" unicode="K" horiz-adv-x="520" 
d="M65 0v740h122v-344l191 344h134l-212 -362l228 -378h-141l-200 347v-347h-122z" />
    <glyph glyph-name="L" unicode="L" horiz-adv-x="426" 
d="M70 0v740h122v-627h211v-113h-333z" />
    <glyph glyph-name="M" unicode="M" horiz-adv-x="751" 
d="M176 0h-109v740h181l130 -536l125 536h181v-740h-109v611l-150 -611h-95l-154 611v-611z" />
    <glyph glyph-name="N" unicode="N" horiz-adv-x="605" 
d="M197 740l232 -505v505h108v-740h-115l-246 535v-535h-109v740h130z" />
    <glyph glyph-name="O" unicode="O" horiz-adv-x="612" 
d="M35 370v1q0 175 69.5 279t200.5 104q132 0 201.5 -104t69.5 -280q0 -171 -68.5 -277.5t-202.5 -106.5q-131 0 -200.5 104t-69.5 280zM160 370v-1q0 -270 145 -270q146 0 146 271t-146 271q-145 0 -145 -271z" />
    <glyph glyph-name="P" unicode="P" horiz-adv-x="530" 
d="M70 740h183q114 0 178 -58q70 -62 70 -175t-70 -176q-64 -58 -178 -58h-61v-273h-122v740zM192 627v-241h60q65 0 93 28q30 28 30 92q0 66 -31 94q-28 27 -92 27h-60z" />
    <glyph glyph-name="Q" unicode="Q" horiz-adv-x="613" 
d="M579 102v-113q-30 -3 -31 -3q-64 0 -105 42q-59 -42 -138 -42q-131 0 -200.5 104t-69.5 280t69.5 280t200.5 104q132 0 201.5 -104t69.5 -280q0 -156 -56 -255q20 -20 59 -13zM305 641h-1q-144 0 -144 -271q0 -40 8 -88q48 24 94 24q41 0 83 -23q47 -29 82 -75
q24 63 24 162q0 271 -146 271zM305 99h1q42 0 69 23q-27 36 -53 55q-37 25 -83 25q-30 0 -53 -17q37 -86 119 -86z" />
    <glyph glyph-name="R" unicode="R" horiz-adv-x="535" 
d="M65 0v740h172q142 0 196 -57q66 -68 66 -174q0 -72 -26 -120q-36 -70 -103 -93l143 -296h-137l-163 364q22 0 33 1q59 2 91 32q37 37 37 101q0 73 -43 107q-28 22 -98 22h-46v-627h-122z" />
    <glyph glyph-name="S" unicode="S" horiz-adv-x="532" 
d="M35 222h121q7 -128 109 -128q49 0 78 29.5t29 80.5q0 15 -4 28.5t-10 23t-17.5 19t-20 15t-25.5 13t-26.5 11t-30 10.5t-28.5 10q-35 14 -57.5 26.5t-50 35t-41.5 57.5t-14 80q-1 102 57.5 162t156.5 60q192 0 221 -203h-118q-3 44 -27.5 72.5t-70.5 28.5
q-43 0 -68.5 -28.5t-25.5 -72.5q0 -17 3.5 -30.5t14.5 -25t18.5 -18.5t27.5 -16t28.5 -12.5t35.5 -13t35 -12.5q33 -13 56.5 -26.5t50 -38t41 -63t14.5 -89.5q0 -100 -65.5 -160.5t-167.5 -60.5q-111 0 -169.5 60.5t-59.5 175.5z" />
    <glyph glyph-name="T" unicode="T" horiz-adv-x="432" 
d="M155 0v627h-134v113h390v-113h-134v-627h-122z" />
    <glyph glyph-name="U" unicode="U" horiz-adv-x="589" 
d="M62 740h122v-518q0 -64 28 -92q25 -29 82 -29t83 29q27 28 27 92v518h122v-535q0 -104 -54 -158q-59 -61 -178 -61t-178 61q-54 55 -54 158v535z" />
    <glyph glyph-name="V" unicode="V" horiz-adv-x="536" 
d="M213 0l-207 740h120l144 -558l144 558h116l-207 -740h-110z" />
    <glyph glyph-name="W" unicode="W" horiz-adv-x="814" 
d="M182 0l-178 740h123l115 -533l111 533h112l111 -533l112 533h122l-175 -740h-113l-115 553l-113 -553h-112z" />
    <glyph glyph-name="X" unicode="X" horiz-adv-x="520" 
d="M2 0l192 398l-164 342h125l106 -237l105 237h127l-166 -342l190 -398h-129l-127 287l-130 -287h-129z" />
    <glyph glyph-name="Y" unicode="Y" horiz-adv-x="480" 
d="M179 0v286l-183 454h126l119 -339l117 339h126l-183 -454v-286h-122z" />
    <glyph glyph-name="Z" unicode="Z" horiz-adv-x="495" 
d="M452 630l-275 -517h279v-113h-421v106l274 521h-260v113h403v-110z" />
    <glyph glyph-name="bracketleft" unicode="[" horiz-adv-x="367" 
d="M312 -118v-86h-241v944h241v-86h-143v-772h143z" />
    <glyph glyph-name="backslash" unicode="\" horiz-adv-x="278" 
d="M219 -33l-260 782h101l260 -782h-101z" />
    <glyph glyph-name="bracketright" unicode="]" horiz-adv-x="367" 
d="M55 -204v86h143v772h-143v86h242v-944h-242z" />
    <glyph glyph-name="asciicircum" unicode="^" horiz-adv-x="576" 
d="M70 386l166 354h102l167 -354h-103l-115 255l-114 -255h-103z" />
    <glyph glyph-name="underscore" unicode="_" horiz-adv-x="500" 
d="M500 -125h-500v50h500v-50z" />
    <glyph glyph-name="grave" unicode="`" horiz-adv-x="332" 
d="M42 794l225 -125l-38 -71l-229 109z" />
    <glyph glyph-name="a" unicode="a" horiz-adv-x="496" 
d="M435 559v-559h-99q0 52 1 73q-38 -85 -123 -85q-81 0 -131 76t-50 215q0 138 47 215t134 77q92 0 123 -88q-1 25 -1 76h99zM141 279v-1q0 -183 94 -183q42 0 69 39q14 19 18.5 49.5t4.5 95.5q0 66 -4.5 96.5t-18.5 49.5q-27 38 -69 38q-94 0 -94 -184z" />
    <glyph glyph-name="b" unicode="b" horiz-adv-x="496" 
d="M61 0v740h108v-181v-73q26 85 113 85q86 0 133.5 -77t47.5 -214q0 -140 -50 -216t-131 -76q-88 0 -122 87v-75h-99zM355 279v1q0 183 -93 183q-29 0 -48 -14.5t-28.5 -42.5t-13 -57.5t-3.5 -69.5q0 -54 6 -91t27.5 -65t59.5 -28q93 0 93 184z" />
    <glyph glyph-name="c" unicode="c" horiz-adv-x="444" 
d="M314 204h112q-3 -92 -50 -154t-131 -62q-102 0 -159 79t-57 212q0 137 58 214.5t157 77.5q85 0 132 -62.5t49 -155.5h-112q-6 116 -77 116q-47 0 -68 -44q-25 -49 -25 -146q0 -190 94 -190q70 0 77 115z" />
    <glyph glyph-name="d" unicode="d" horiz-adv-x="496" 
d="M435 740v-740h-99q0 57 1 81q-11 -43 -44.5 -68t-78.5 -25q-81 0 -131 76t-50 215q0 138 47 215t134 77q81 0 114 -81q-1 22 -1 69v181h108zM141 280v-1q0 -183 94 -183q42 0 69 38q14 20 18.5 50t4.5 96q0 65 -4.5 95.5t-18.5 49.5q-27 39 -69 39q-94 0 -94 -184z" />
    <glyph glyph-name="e" unicode="e" horiz-adv-x="491" 
d="M454 242h-301q0 -65 24.5 -109t74.5 -44q35 0 58.5 22t31.5 63h107q-15 -98 -76 -147q-52 -39 -121 -39q-106 0 -160.5 83t-54.5 208q0 129 56 210.5t158 81.5q104 0 158 -85q49 -80 45 -244zM153 335h193q-1 58 -23.5 102t-71.5 44q-45 0 -71.5 -39t-26.5 -107z" />
    <glyph glyph-name="f" unicode="f" horiz-adv-x="267" 
d="M73 0v457h-56v102h56v30q0 164 190 164v-94q-37 -1 -59.5 -17t-22.5 -64v-19h82v-102h-82v-457h-108z" />
    <glyph glyph-name="g" unicode="g" horiz-adv-x="496" 
d="M435 559v-551q0 -99 -50 -152q-51 -56 -150 -56q-70 0 -127 42t-65 121h113q6 -30 23 -44q21 -18 57 -18q92 0 93 113v56q-25 -82 -115 -82t-135.5 76t-45.5 215q0 140 45 216t136 76q45 0 76 -19.5t53 -67.5q-1 24 -1 75h93zM141 279v-1q0 -183 94 -183q42 0 69 39
q14 19 18.5 49.5t4.5 95.5q0 66 -4.5 96.5t-18.5 49.5q-27 38 -69 38q-94 0 -94 -184z" />
    <glyph glyph-name="h" unicode="h" horiz-adv-x="499" 
d="M61 0v740h108v-172q0 -42 -1 -65q27 68 119 68q75 0 114 -47q38 -44 38 -132v-392h-108v360q0 51 -17 76q-16 27 -57 27q-43 0 -64 -26q-24 -25 -24 -82v-355h-108z" />
    <glyph glyph-name="i" unicode="i" horiz-adv-x="254" 
d="M73 633v107h108v-107h-108zM73 0v559h108v-559h-108z" />
    <glyph glyph-name="j" unicode="j" horiz-adv-x="252" 
d="M72 633v107h108v-107h-108zM180 559v-580q0 -166 -137 -175q-11 -1 -34 -1v103h8q30 4 42.5 25.5t12.5 63.5v564h108z" />
    <glyph glyph-name="k" unicode="k" horiz-adv-x="425" 
d="M55 0v740h108v-415l136 234h122l-162 -251l169 -308h-117l-148 266v-266h-108z" />
    <glyph glyph-name="l" unicode="l" horiz-adv-x="254" 
d="M73 0v740h108v-740h-108z" />
    <glyph glyph-name="m" unicode="m" horiz-adv-x="769" 
d="M65 0v559h103q0 -49 -1 -75q29 87 124 87q54 0 87 -30q19 -17 28 -47q12 29 40 50q41 27 96 27q84 0 128 -61q35 -46 35 -132v-378h-108v362q0 49 -13 70q-16 31 -60 31q-43 0 -63 -24q-22 -25 -22 -74v-365h-108v361q0 48 -13 71q-15 31 -59 31q-43 0 -63 -23
q-22 -26 -22 -76v-364h-109z" />
    <glyph glyph-name="n" unicode="n" horiz-adv-x="499" 
d="M61 0v559h95q0 -45 -1 -69q36 81 133 81q151 0 151 -173v-398h-108v363q0 100 -75 100q-41 0 -64 -26t-23 -79v-358h-108z" />
    <glyph glyph-name="o" unicode="o" horiz-adv-x="497" 
d="M33 279v1q0 127 55 209t161 82q105 0 160 -82t55 -210q0 -127 -55 -209t-160 -82q-106 0 -161 82t-55 209zM147 279v-1q0 -100 26 -144.5t77 -44.5q100 0 100 190q0 101 -26 145.5t-77 44.5q-100 0 -100 -190z" />
    <glyph glyph-name="p" unicode="p" horiz-adv-x="496" 
d="M61 -188v747h99v-73q34 85 122 85q81 0 131 -76t50 -216q0 -137 -47.5 -214t-133.5 -77q-39 0 -68.5 20.5t-44.5 55.5v-64v-188h-108zM355 279v1q0 183 -94 183q-39 0 -66 -38q-26 -35 -26 -146q0 -110 26 -145q27 -39 66 -39q94 0 94 184z" />
    <glyph glyph-name="q" unicode="q" horiz-adv-x="496" 
d="M435 559v-747h-108v188q0 49 1 69q-32 -81 -114 -81q-86 0 -133.5 77t-47.5 214q0 140 50 216t131 76q44 0 77 -22.5t43 -62.5q-1 23 -1 73h102zM141 279v-1q0 -183 94 -183q42 0 69 39q14 19 18.5 49.5t4.5 95.5q0 66 -4.5 96.5t-18.5 49.5q-27 38 -69 38
q-94 0 -94 -184z" />
    <glyph glyph-name="r" unicode="r" horiz-adv-x="312" 
d="M61 0v559h99q0 -62 -1 -90q16 59 53 80.5t92 21.5v-131q-20 13 -46 13q-38 0 -63.5 -36.5t-25.5 -100.5v-316h-108z" />
    <glyph glyph-name="s" unicode="s" horiz-adv-x="428" 
d="M385 401h-108q-1 76 -71 76q-27 0 -43.5 -16t-16.5 -42q0 -11 3 -20.5t11 -16.5t14 -12t20.5 -10.5t21.5 -8t27 -8.5t27 -8q58 -19 93.5 -56.5t35.5 -113.5q0 -77 -53 -127t-133 -50q-82 0 -134 47t-59 138h108q1 -40 25 -63.5t62 -23.5q35 0 52.5 20.5t17.5 51.5
q0 9 -1.5 17t-6.5 14.5t-9 11.5t-13.5 10.5t-14.5 8.5t-18.5 8t-18.5 7t-21.5 7t-21.5 7q-59 20 -93.5 56.5t-34.5 109.5q0 70 47.5 113t130.5 43q165 0 175 -170z" />
    <glyph glyph-name="t" unicode="t" horiz-adv-x="267" 
d="M80 0v457h-67v102h67v133h108v-133h66v-102h-66v-457h-108z" />
    <glyph glyph-name="u" unicode="u" horiz-adv-x="499" 
d="M438 559v-559h-99q0 48 1 74q-29 -86 -130 -86q-150 0 -150 173v398h108v-363q0 -101 75 -101q40 0 63.5 26.5t23.5 79.5v358h108z" />
    <glyph glyph-name="v" unicode="v" horiz-adv-x="424" 
d="M420 559l-152 -559h-100l-165 559h110l103 -399l95 399h109z" />
    <glyph glyph-name="w" unicode="w" horiz-adv-x="649" 
d="M140 0l-138 559h111l81 -395l86 376h91l89 -376l76 395h111l-137 -559h-102l-82 377l-81 -377h-105z" />
    <glyph glyph-name="x" unicode="x" horiz-adv-x="455" 
d="M4 0l156 289l-144 270h127l83 -190l86 190h123l-143 -270l159 -289h-128l-97 208l-94 -208h-128z" />
    <glyph glyph-name="y" unicode="y" horiz-adv-x="426" 
d="M90 -188l69 214l-155 533h113l97 -369l96 369h113l-223 -747h-110z" />
    <glyph glyph-name="z" unicode="z" horiz-adv-x="426" 
d="M25 0v101l229 356h-210v102h338v-102l-225 -355h229v-102h-361z" />
    <glyph glyph-name="braceleft" unicode="{" horiz-adv-x="367" 
d="M299 740v-85h-52q-33 0 -46 -17t-13 -60v-196q0 -13 -2 -25t-5.5 -21.5t-8.5 -18.5t-9.5 -15.5t-11 -13t-11.5 -10t-11.5 -8t-9.5 -6.5t-9 -5l-5 -3q82 -17 83 -124v-195q0 -44 13 -60.5t46 -16.5h52v-85h-89q-120 0 -120 134v209q0 85 -62 97v83q28 1 45 28.5t17 69.5
v210q0 134 120 134h89z" />
    <glyph glyph-name="bar" unicode="|" horiz-adv-x="290" 
d="M95 750h100v-1000h-100v1000z" />
    <glyph glyph-name="braceright" unicode="}" horiz-adv-x="367" 
d="M68 655v85h89q120 0 120 -135v-208q0 -86 63 -98v-82q-29 -2 -46 -29t-17 -70v-210q0 -133 -120 -133h-89v85h52q33 0 46 16.5t13 59.5v196q1 83 84 127q-83 17 -84 123v196q0 44 -13 60.5t-46 16.5h-52z" />
    <glyph glyph-name="asciitilde" unicode="~" horiz-adv-x="576" 
d="M469 333l32 -83q-47 -78 -113 -78q-35 0 -105 30q-73 29 -92 29q-47 1 -84 -59l-33 83q50 79 118 78q33 0 106 -30q70 -30 92 -30q42 0 79 60z" />
    <glyph glyph-name="uni00A0" unicode="&#xa0;" horiz-adv-x="264" 
 />
    <glyph glyph-name="exclamdown" unicode="&#xa1;" horiz-adv-x="267" 
d="M74 424v135h119v-135h-119zM74 -187v550h119v-550h-119z" />
    <glyph glyph-name="cent" unicode="&#xa2;" 
d="M323 -12h-95v99q-48 2 -83.5 31t-53 73.5t-25.5 87t-8 84.5q0 135 42 205.5t128 82.5v98h95v-98q143 -13 153 -212h-115q-12 110 -84 110q-49 0 -73 -42t-24 -138q0 -95 25 -137.5t75 -42.5q37 0 58.5 31t24.5 78h114q-2 -89 -40.5 -147t-113.5 -64v-99z" />
    <glyph glyph-name="sterling" unicode="&#xa3;" 
d="M363 436v-108h-127q45 -54 45 -109q0 -51 -27 -100h32q56 0 84 25q26 25 26 74q0 17 -2 41h120q4 -36 4 -61q0 -92 -57 -147q-57 -51 -143 -51h-282v119h97q25 37 25 99q0 45 -44 110h-100v108h52q-22 44 -22 104q0 95 60.5 153.5t161.5 58.5q94 0 154 -58.5t65 -156.5
h-123q-6 42 -36 68t-67 26q-42 -1 -68.5 -29t-27.5 -73q0 -49 28 -93h172z" />
    <glyph glyph-name="currency" unicode="&#xa4;" 
d="M474 90l-86 86q-40 -33 -117 -33t-117 33l-86 -86l-69 69l86 86q-35 41 -35 118q0 76 34 118l-86 87l70 68l86 -86q37 34 117 34q81 0 117 -33l86 85l71 -68l-87 -87q34 -37 34 -118t-35 -118l87 -86zM153 363v-1q0 -48 35 -83t83 -35t83.5 35t35.5 84q0 50 -35 85
t-84 35t-83.5 -35t-34.5 -85z" />
    <glyph glyph-name="yen" unicode="&#xa5;" 
d="M509 481v-108h-165l-15 -32v-32h180v-108h-180v-201h-115v201h-180v108h180v32l-15 32h-165v108h115l-124 259h128l119 -297l117 297h128l-123 -259h115z" />
    <glyph glyph-name="brokenbar" unicode="&#xa6;" horiz-adv-x="290" 
d="M95 675h100v-350h-100v350zM95 175h100v-350h-100v350z" />
    <glyph glyph-name="section" unicode="&#xa7;" horiz-adv-x="500" 
d="M400 609h-78q-8 69 -63 69q-59 0 -59 -55q0 -41 53 -85l123 -112q71 -65 71 -128q0 -41 -26.5 -78t-67.5 -50q47 -52 47 -118q0 -58 -41 -97.5t-108 -39.5q-63 0 -105.5 38t-48.5 118h77q2 -37 21.5 -59t51.5 -22q27 0 43 17.5t16 45.5q1 44 -80 117l-112 106
q-61 52 -61 122q0 46 27.5 78t73.5 43q-47 52 -47 101q0 60 39 97t115 37q129 0 139 -145zM354 286v1q0 34 -63 90l-102 94q-45 -21 -45 -64q0 -38 49 -78l118 -108q43 22 43 65z" />
    <glyph glyph-name="dieresis" unicode="&#xa8;" horiz-adv-x="271" 
d="M98 744v-113h-102v113h102zM276 744v-113h-103v113h103z" />
    <glyph glyph-name="copyright" unicode="&#xa9;" horiz-adv-x="800" 
d="M402 753h1q159 0 269.5 -113t110.5 -270q0 -159 -112 -271t-270 -112q-159 0 -271 111.5t-112 271.5q0 157 111 270t273 113zM402 689h-1q-132 0 -222.5 -93.5t-90.5 -225.5q0 -133 91.5 -226t221.5 -93t221 92.5t91 226.5q0 131 -90 225t-221 94zM591 432h-75
q-7 40 -36 58.5t-68 18.5q-53 0 -85 -37t-32 -105q0 -70 33 -106t84 -36q40 0 71 19.5t35 68.5h78q-9 -78 -61 -121.5t-123 -43.5q-90 0 -149 61t-59 158q0 95 57.5 157.5t150.5 62.5q71 0 120 -41t59 -114z" />
    <glyph glyph-name="ordfeminine" unicode="&#xaa;" horiz-adv-x="300" 
d="M276 747v-336h-73q0 32 1 45q-24 -52 -80 -52q-53 0 -85.5 45.5t-32.5 128.5t31 129.5t87 46.5q60 0 80 -55q-1 17 -1 48h73zM85 578v-1q0 -47 14.5 -74t40.5 -27q50 0 53 64q2 26 2 40q0 13 -2 39q-5 62 -54 62q-25 0 -39.5 -26.5t-14.5 -76.5z" />
    <glyph glyph-name="guillemotleft" unicode="&#xab;" horiz-adv-x="421" 
d="M29 282l102 185h97l-102 -185l102 -184h-97zM194 282l102 185h96l-102 -185l102 -184h-96z" />
    <glyph glyph-name="logicalnot" unicode="&#xac;" horiz-adv-x="576" 
d="M42 409h492v-313h-99v214h-393v99z" />
    <glyph glyph-name="uni00AD" unicode="&#xad;" horiz-adv-x="306" 
d="M35 336h235v-106h-235v106z" />
    <glyph glyph-name="registered" unicode="&#xae;" horiz-adv-x="800" 
d="M402 753h1q159 0 269.5 -113t110.5 -270q0 -159 -112 -271t-270 -112q-159 0 -271 111.5t-112 271.5q0 157 111 270t273 113zM402 689h-1q-132 0 -222.5 -93.5t-90.5 -225.5q0 -133 91.5 -226t221.5 -93t221 92.5t91 226.5q0 131 -90 225t-221 94zM237 587h181
q39 0 71.5 -9.5t58 -37.5t25.5 -72q0 -72 -73 -105q60 -20 65 -99q6 -88 13 -107h-85q-7 13 -13 102q-2 16 -5 25.5t-11.5 21.5t-27 18t-46.5 6h-66v-173h-87v430zM404 526h-80v-137h72q57 2 76 26q14 19 14 47q0 64 -82 64z" />
    <glyph glyph-name="macron" unicode="&#xaf;" horiz-adv-x="332" 
d="M336 721v-72h-340v72h340z" />
    <glyph glyph-name="degree" unicode="&#xb0;" horiz-adv-x="400" 
d="M347 595v-1q0 -61 -42.5 -103.5t-104.5 -42.5t-104.5 42.5t-42.5 104.5q0 61 42.5 104t104.5 43t104.5 -43t42.5 -104zM107 595v-1q0 -40 26.5 -67.5t66.5 -27.5t66.5 27.5t26.5 68.5q0 40 -26.5 68t-66.5 28t-66.5 -28t-26.5 -68z" />
    <glyph glyph-name="plusminus" unicode="&#xb1;" horiz-adv-x="576" 
d="M238 370v136h99v-136h197v-99h-197v-136h-99v136h-196v99h196zM42 0v99h492v-99h-492z" />
    <glyph glyph-name="twosuperior" unicode="&#xb2;" horiz-adv-x="337" 
d="M311 385v-81h-290v76q115 107 154 147q27 27 35.5 43.5t8.5 38.5q0 27 -13.5 43.5t-39.5 16.5q-25 0 -41 -18t-16 -54h-87q0 53 20 88q38 63 126 63q66 0 105 -39t39 -102q0 -62 -52 -115q-17 -18 -59.5 -55.5t-57.5 -51.5h168z" />
    <glyph glyph-name="threesuperior" unicode="&#xb3;" horiz-adv-x="337" 
d="M18 440h85q1 -34 19 -52t47 -18q30 0 46 17.5t16 46.5q0 33 -19.5 53t-55.5 20h-34v67h30q58 0 58 51q0 21 -11.5 35t-34.5 14q-24 0 -36.5 -14.5t-12.5 -38.5h-86q1 61 39.5 94t99.5 33q59 0 95.5 -31t36.5 -82q0 -62 -59 -89q36 -6 58 -36.5t22 -77.5q0 -58 -41 -97
t-107 -39q-92 0 -131 59q-24 35 -24 85z" />
    <glyph glyph-name="acute" unicode="&#xb4;" horiz-adv-x="332" 
d="M65 669l225 125l42 -87l-229 -109z" />
    <glyph glyph-name="mu" unicode="&#xb5;" horiz-adv-x="500" 
d="M61 -180v739h108v-360q0 -53 17 -80q17 -24 53 -24q44 0 67 27q25 30 25 90v347h108v-559h-99q0 53 1 80q-10 -39 -43 -65.5t-82 -26.5q-36 0 -47 22v-59v-131h-108z" />
    <glyph glyph-name="paragraph" unicode="&#xb6;" horiz-adv-x="591" 
d="M247 -79v450q-105 0 -163 46t-58 138t58.5 138.5t164.5 46.5h317v-75h-46v-744h-101v744h-71v-744h-101z" />
    <glyph glyph-name="periodcentered" unicode="&#xb7;" horiz-adv-x="270" 
d="M198 324v-141h-126v141h126z" />
    <glyph glyph-name="cedilla" unicode="&#xb8;" horiz-adv-x="254" 
d="M155 0l-39 -64q22 5 29 5q36 0 60.5 -20t24.5 -54q0 -41 -33 -67t-75 -26q-67 0 -106 35l22 38q11 -10 33.5 -16.5t39.5 -6.5q20 0 33.5 11.5t14.5 28.5q-1 16 -13.5 27t-29.5 11q-16 0 -44 -12l-22 15l57 95h48z" />
    <glyph glyph-name="onesuperior" unicode="&#xb9;" horiz-adv-x="313" 
d="M211 740v-436h-87v362h-71v74h158z" />
    <glyph glyph-name="ordmasculine" unicode="&#xba;" horiz-adv-x="300" 
d="M9 578v1q0 76 36.5 125.5t105.5 49.5t104.5 -49.5t35.5 -126.5t-35.5 -126t-104.5 -49t-105.5 49.5t-36.5 125.5zM90 578v-1q0 -107 61 -107q59 0 59 108q0 59 -15 84t-47 25q-30 0 -44 -25t-14 -84z" />
    <glyph glyph-name="guillemotright" unicode="&#xbb;" horiz-adv-x="421" 
d="M290 467l102 -185l-102 -184h-96l102 184l-102 185h96zM125 467l102 -185l-102 -184h-96l102 184l-102 185h96z" />
    <glyph glyph-name="onequarter" unicode="&#xbc;" horiz-adv-x="789" 
d="M707 436v-278h43v-75h-43v-83h-83v83h-179v71l176 282h86zM624 320l-96 -162h96v162zM229 740v-436h-87v362h-71v74h158zM618 749l-358 -758h-93l357 758h94z" />
    <glyph glyph-name="onehalf" unicode="&#xbd;" horiz-adv-x="801" 
d="M229 740v-436h-87v362h-71v74h158zM597 749l-358 -758h-94l358 758h94zM759 82v-82h-290v76q102 94 155 148q27 27 35 43t8 38q0 27 -13.5 44t-38.5 17t-41.5 -18t-16.5 -55h-87q0 53 20 88q38 63 126 63q66 0 105 -38.5t39 -102.5q0 -62 -52 -114q-18 -19 -65 -61
t-52 -46h168z" />
    <glyph glyph-name="threequarters" unicode="&#xbe;" horiz-adv-x="814" 
d="M731 436v-278h43v-75h-43v-83h-83v83h-179v71l177 282h85zM648 320l-96 -162h96v162zM32 440h86q0 -34 18 -52t47 -18q31 0 47 17.5t16 46.5q0 33 -19.5 53t-55.5 20h-34v67h30q57 0 57 51q0 21 -11.5 35t-33.5 14q-49 0 -49 -53h-86q1 61 39.5 94t99.5 33q59 0 95 -31
t36 -82q0 -62 -58 -89q36 -6 58 -36.5t22 -77.5q0 -58 -41 -97t-107 -39q-92 0 -131 59q-25 34 -25 85zM657 749l-358 -758h-94l358 758h94z" />
    <glyph glyph-name="questiondown" unicode="&#xbf;" horiz-adv-x="491" 
d="M202 424v135h119v-135h-119zM202 367h119q0 -9 0.5 -42.5t-1 -46.5t-5 -37.5t-13 -43.5t-25.5 -37q-15 -19 -47 -48t-49 -52.5t-17 -50.5q0 -41 24 -65t64 -24q35 0 59 22t27 68v26h122v-34q-4 -96 -62.5 -145.5t-150.5 -49.5q-88 0 -148.5 57.5t-60.5 149.5q0 56 24 94
t68 79q54 50 63 76t9 104z" />
    <glyph glyph-name="Agrave" unicode="&#xc0;" horiz-adv-x="533" 
d="M171 171l-46 -171h-124l205 740h115l211 -740h-124l-47 171h-190zM329 283l-64 286l-64 -286h128zM141 959l225 -125l-38 -71l-229 109z" />
    <glyph glyph-name="Aacute" unicode="&#xc1;" horiz-adv-x="533" 
d="M171 171l-46 -171h-124l205 740h115l211 -740h-124l-47 171h-190zM329 283l-64 286l-64 -286h128zM167 834l224 125l42 -87l-228 -109z" />
    <glyph glyph-name="Acircumflex" unicode="&#xc2;" horiz-adv-x="533" 
d="M171 171l-46 -171h-124l205 740h115l211 -740h-124l-47 171h-190zM329 283l-64 286l-64 -286h128zM318 926l124 -138h-98l-78 84l-78 -84h-97l123 138h104z" />
    <glyph glyph-name="Atilde" unicode="&#xc3;" horiz-adv-x="533" 
d="M171 171l-46 -171h-124l205 740h115l211 -740h-124l-47 171h-190zM329 283l-64 286l-64 -286h128zM414 907l42 -67q-41 -41 -98 -41q-52 0 -91 13q-46 14 -76 14q-42 0 -72 -28l-43 67q16 18 43 30.5t54 12.5q51 0 93 -14q43 -13 77 -13q41 0 71 26z" />
    <glyph glyph-name="Adieresis" unicode="&#xc4;" horiz-adv-x="533" 
d="M171 171l-46 -171h-124l205 740h115l211 -740h-124l-47 171h-190zM329 283l-64 286l-64 -286h128zM229 909v-113h-103v113h103zM406 909v-113h-102v113h102z" />
    <glyph glyph-name="Aring" unicode="&#xc5;" horiz-adv-x="533" 
d="M171 171l-46 -171h-124l205 740h115l211 -740h-124l-47 171h-190zM329 283l-64 286l-64 -286h128zM266 987h1q45 0 76.5 -32t31.5 -76q0 -45 -31.5 -76.5t-77.5 -31.5q-45 0 -76.5 31.5t-31.5 76.5q0 44 31.5 76t76.5 32zM266 933h-1q-22 0 -37 -15.5t-15 -38.5t15.5 -38
t37.5 -15q23 0 38 15t15 38t-15 38.5t-38 15.5z" />
    <glyph glyph-name="AE" unicode="&#xc6;" horiz-adv-x="862" 
d="M-11 0l361 740h436v-113h-260v-187h260v-112h-260v-215h260v-113h-382v169h-199l-77 -169h-139zM253 282h151v345z" />
    <glyph glyph-name="Ccedilla" unicode="&#xc7;" horiz-adv-x="587" 
d="M326 -12l-24 -51q13 5 30 5q28 0 49 -20t21 -55q0 -42 -30 -67.5t-74 -25.5q-65 0 -98 37l22 38q20 -25 60 -25q21 0 35 11t14 28q0 16 -9.5 27.5t-23.5 11.5q-20 0 -29 -12l-34 15l41 82q-111 6 -177 104.5t-66 278.5q0 186 69.5 285t193.5 99q122 0 189 -83.5
t66 -209.5h-125q-4 177 -121 177q-147 0 -147 -271q0 -135 40.5 -200t107.5 -65q112 0 120 167h125q0 -113 -58.5 -192t-166.5 -89z" />
    <glyph glyph-name="Egrave" unicode="&#xc8;" horiz-adv-x="490" 
d="M70 0v740h355v-113h-233v-187h233v-112h-233v-215h233v-113h-355zM121 960l225 -124l-38 -72l-229 109z" />
    <glyph glyph-name="Eacute" unicode="&#xc9;" horiz-adv-x="490" 
d="M70 0v740h355v-113h-233v-187h233v-112h-233v-215h233v-113h-355zM145 836l224 124l42 -87l-229 -109z" />
    <glyph glyph-name="Ecircumflex" unicode="&#xca;" horiz-adv-x="490" 
d="M70 0v740h355v-113h-233v-187h233v-112h-233v-215h233v-113h-355zM297 927l123 -138h-97l-78 84l-78 -84h-97l123 138h104z" />
    <glyph glyph-name="Edieresis" unicode="&#xcb;" horiz-adv-x="490" 
d="M70 0v740h355v-113h-233v-187h233v-112h-233v-215h233v-113h-355zM207 910v-113h-102v113h102zM385 910v-113h-102v113h102z" />
    <glyph glyph-name="Igrave" unicode="&#xcc;" horiz-adv-x="252" 
d="M65 0v740h122v-740h-122zM1 959l225 -125l-38 -71l-229 109z" />
    <glyph glyph-name="Iacute" unicode="&#xcd;" horiz-adv-x="252" 
d="M65 0v740h122v-740h-122zM26 834l225 125l42 -87l-229 -109z" />
    <glyph glyph-name="Icircumflex" unicode="&#xce;" horiz-adv-x="252" 
d="M65 0v740h122v-740h-122zM178 926l123 -138h-97l-78 84l-78 -84h-98l124 138h104z" />
    <glyph glyph-name="Idieresis" unicode="&#xcf;" horiz-adv-x="252" 
d="M65 0v740h122v-740h-122zM88 910v-113h-102v113h102zM266 910v-113h-102v113h102z" />
    <glyph glyph-name="Eth" unicode="&#xd0;" horiz-adv-x="600" 
d="M64 434v306h196q158 0 235 -108q69 -98 69 -262q0 -174 -80 -272t-220 -98h-200v321h-67v113h67zM186 627v-193h134v-113h-134v-208h76q177 0 177 257q0 127 -41 190q-43 67 -140 67h-72z" />
    <glyph glyph-name="Ntilde" unicode="&#xd1;" horiz-adv-x="605" 
d="M197 740l232 -505v505h108v-740h-115l-246 535v-535h-109v740h130zM451 904l42 -68q-41 -41 -98 -41q-47 0 -91 13q-40 14 -77 14q-41 0 -72 -28l-42 67q16 18 43 30.5t54 12.5q48 0 93 -13q40 -14 77 -14q41 0 71 27z" />
    <glyph glyph-name="Ograve" unicode="&#xd2;" horiz-adv-x="612" 
d="M35 370v1q0 175 69.5 279t200.5 104q132 0 201.5 -104t69.5 -280q0 -171 -68.5 -277.5t-202.5 -106.5q-131 0 -200.5 104t-69.5 280zM160 370v-1q0 -270 145 -270q146 0 146 271t-146 271q-145 0 -145 -271zM183 959l224 -125l-38 -71l-228 109z" />
    <glyph glyph-name="Oacute" unicode="&#xd3;" horiz-adv-x="612" 
d="M35 370v1q0 175 69.5 279t200.5 104q132 0 201.5 -104t69.5 -280q0 -171 -68.5 -277.5t-202.5 -106.5q-131 0 -200.5 104t-69.5 280zM160 370v-1q0 -270 145 -270q146 0 146 271t-146 271q-145 0 -145 -271zM206 834l224 125l42 -87l-228 -109z" />
    <glyph glyph-name="Ocircumflex" unicode="&#xd4;" horiz-adv-x="612" 
d="M35 370v1q0 175 69.5 279t200.5 104q132 0 201.5 -104t69.5 -280q0 -171 -68.5 -277.5t-202.5 -106.5q-131 0 -200.5 104t-69.5 280zM160 370v-1q0 -270 145 -270q146 0 146 271t-146 271q-145 0 -145 -271zM358 926l124 -138h-98l-78 84l-78 -84h-97l123 138h104z" />
    <glyph glyph-name="Otilde" unicode="&#xd5;" horiz-adv-x="612" 
d="M35 370v1q0 175 69.5 279t200.5 104q132 0 201.5 -104t69.5 -280q0 -171 -68.5 -277.5t-202.5 -106.5q-131 0 -200.5 104t-69.5 280zM160 370v-1q0 -270 145 -270q146 0 146 271t-146 271q-145 0 -145 -271zM454 909l42 -68q-41 -41 -98 -41q-47 0 -91 13q-40 14 -76 14
q-42 0 -72 -28l-43 67q16 18 43 30.5t54 12.5q47 0 93 -13q40 -14 77 -14q41 0 71 27z" />
    <glyph glyph-name="Odieresis" unicode="&#xd6;" horiz-adv-x="612" 
d="M35 370v1q0 175 69.5 279t200.5 104q132 0 201.5 -104t69.5 -280q0 -171 -68.5 -277.5t-202.5 -106.5q-131 0 -200.5 104t-69.5 280zM160 370v-1q0 -270 145 -270q146 0 146 271t-146 271q-145 0 -145 -271zM269 910v-113h-103v113h103zM446 910v-113h-102v113h102z" />
    <glyph glyph-name="multiply" unicode="&#xd7;" horiz-adv-x="576" 
d="M112 0l-70 72l176 181l-176 179l70 72l176 -182l175 182l71 -72l-176 -179l176 -181l-71 -72l-175 183z" />
    <glyph glyph-name="Oslash" unicode="&#xd8;" horiz-adv-x="612" 
d="M488 672l70 93h97l-123 -162q44 -91 44 -233q0 -171 -68.5 -277.5t-202.5 -106.5q-109 0 -177 77l-67 -88h-97l117 158q-46 93 -46 237q0 176 69.5 280t200.5 104q115 0 183 -82zM172 251l241 320q-34 70 -108 70q-145 0 -145 -271q0 -70 12 -119zM439 482l-238 -320
q33 -63 104 -63q146 0 146 271q0 74 -12 112z" />
    <glyph glyph-name="Ugrave" unicode="&#xd9;" horiz-adv-x="589" 
d="M62 740h122v-518q0 -64 28 -92q25 -29 82 -29t83 29q27 28 27 92v518h122v-535q0 -104 -54 -158q-59 -61 -178 -61t-178 61q-54 55 -54 158v535zM162 959l225 -125l-38 -71l-229 109z" />
    <glyph glyph-name="Uacute" unicode="&#xda;" horiz-adv-x="589" 
d="M62 740h122v-518q0 -64 28 -92q25 -29 82 -29t83 29q27 28 27 92v518h122v-535q0 -104 -54 -158q-59 -61 -178 -61t-178 61q-54 55 -54 158v535zM195 834l225 125l42 -87l-229 -109z" />
    <glyph glyph-name="Ucircumflex" unicode="&#xdb;" horiz-adv-x="589" 
d="M62 740h122v-518q0 -64 28 -92q25 -29 82 -29t83 29q27 28 27 92v518h122v-535q0 -104 -54 -158q-59 -61 -178 -61t-178 61q-54 55 -54 158v535zM347 928l123 -138h-97l-78 85l-79 -85h-97l124 138h104z" />
    <glyph glyph-name="Udieresis" unicode="&#xdc;" horiz-adv-x="589" 
d="M62 740h122v-518q0 -64 28 -92q25 -29 82 -29t83 29q27 28 27 92v518h122v-535q0 -104 -54 -158q-59 -61 -178 -61t-178 61q-54 55 -54 158v535zM257 910v-113h-102v113h102zM435 910v-113h-103v113h103z" />
    <glyph glyph-name="Yacute" unicode="&#xdd;" horiz-adv-x="480" 
d="M179 0v286l-183 454h126l119 -339l117 339h126l-183 -454v-286h-122zM147 834l224 125l42 -87l-228 -109z" />
    <glyph glyph-name="Thorn" unicode="&#xde;" horiz-adv-x="534" 
d="M70 0v740h122v-131h61q114 0 178 -57q70 -62 70 -173t-70 -173q-64 -57 -178 -57h-61v-149h-122zM192 496v-234h60q63 0 93 27q30 28 30 90t-31 90q-28 27 -92 27h-60z" />
    <glyph glyph-name="germandbls" unicode="&#xdf;" horiz-adv-x="536" 
d="M62 0v531q0 117 51 166q53 56 160 56q88 0 138 -51t50 -133q0 -145 -109 -179q73 -12 110 -61.5t37 -122.5q0 -101 -51 -159.5t-146 -58.5q-118 0 -144 95l1 -83h-97zM171 520v-312h41q1 -55 25 -87t60 -32q38 0 63 30.5t25 79.5q0 65 -32 96q-35 29 -78 30q-22 2 -46 2
v100q10 0 22 1q96 4 96 124q0 45 -24 72t-67 27q-42 0 -65 -29q-20 -25 -20 -102z" />
    <glyph glyph-name="agrave" unicode="&#xe0;" horiz-adv-x="496" 
d="M435 559v-559h-99q0 52 1 73q-38 -85 -123 -85q-81 0 -131 76t-50 215q0 138 47 215t134 77q92 0 123 -88q-1 25 -1 76h99zM141 279v-1q0 -183 94 -183q42 0 69 39q14 19 18.5 49.5t4.5 95.5q0 66 -4.5 96.5t-18.5 49.5q-27 38 -69 38q-94 0 -94 -184zM122 794l224 -125
l-37 -71l-229 109z" />
    <glyph glyph-name="aacute" unicode="&#xe1;" horiz-adv-x="496" 
d="M435 559v-559h-99q0 52 1 73q-38 -85 -123 -85q-81 0 -131 76t-50 215q0 138 47 215t134 77q92 0 123 -88q-1 25 -1 76h99zM141 279v-1q0 -183 94 -183q42 0 69 39q14 19 18.5 49.5t4.5 95.5q0 66 -4.5 96.5t-18.5 49.5q-27 38 -69 38q-94 0 -94 -184zM152 669l225 125
l42 -87l-229 -109z" />
    <glyph glyph-name="acircumflex" unicode="&#xe2;" horiz-adv-x="496" 
d="M435 559v-559h-99q0 52 1 73q-38 -85 -123 -85q-81 0 -131 76t-50 215q0 138 47 215t134 77q92 0 123 -88q-1 25 -1 76h99zM141 279v-1q0 -183 94 -183q42 0 69 39q14 19 18.5 49.5t4.5 95.5q0 66 -4.5 96.5t-18.5 49.5q-27 38 -69 38q-94 0 -94 -184zM290 761l123 -138
h-97l-78 84l-78 -84h-97l123 138h104z" />
    <glyph glyph-name="atilde" unicode="&#xe3;" horiz-adv-x="496" 
d="M435 559v-559h-99q0 52 1 73q-38 -85 -123 -85q-81 0 -131 76t-50 215q0 138 47 215t134 77q92 0 123 -88q-1 25 -1 76h99zM141 279v-1q0 -183 94 -183q42 0 69 39q14 19 18.5 49.5t4.5 95.5q0 66 -4.5 96.5t-18.5 49.5q-27 38 -69 38q-94 0 -94 -184zM396 744l42 -68
q-41 -41 -98 -41q-47 0 -91 13q-40 14 -77 14q-41 0 -72 -28l-42 67q16 18 43 30.5t54 12.5q47 0 93 -13q40 -14 77 -14q41 0 71 27z" />
    <glyph glyph-name="adieresis" unicode="&#xe4;" horiz-adv-x="496" 
d="M435 559v-559h-99q0 52 1 73q-38 -85 -123 -85q-81 0 -131 76t-50 215q0 138 47 215t134 77q92 0 123 -88q-1 25 -1 76h99zM141 279v-1q0 -183 94 -183q42 0 69 39q14 19 18.5 49.5t4.5 95.5q0 66 -4.5 96.5t-18.5 49.5q-27 38 -69 38q-94 0 -94 -184zM193 744v-113h-103
v113h103zM371 744v-113h-103v113h103z" />
    <glyph glyph-name="aring" unicode="&#xe5;" horiz-adv-x="496" 
d="M435 559v-559h-99q0 52 1 73q-38 -85 -123 -85q-81 0 -131 76t-50 215q0 138 47 215t134 77q92 0 123 -88q-1 25 -1 76h99zM141 279v-1q0 -183 94 -183q42 0 69 39q14 19 18.5 49.5t4.5 95.5q0 66 -4.5 96.5t-18.5 49.5q-27 38 -69 38q-94 0 -94 -184zM230 821h1
q45 0 76.5 -32t31.5 -76q0 -45 -32 -77t-77 -32t-76.5 32t-31.5 77q0 44 31.5 76t76.5 32zM230 766h-1q-22 0 -37 -15.5t-15 -37.5q0 -23 15.5 -38t37.5 -15q23 0 38.5 15t15.5 38t-15.5 38t-38.5 15z" />
    <glyph glyph-name="ae" unicode="&#xe6;" horiz-adv-x="786" 
d="M759 250h-319q0 -161 104 -161q39 0 66.5 22.5t35.5 62.5h108q-10 -83 -60.5 -134.5t-130.5 -51.5q-90 0 -129 82l1 -70h-99l1 70q-34 -82 -125 -82q-87 0 -138.5 75.5t-51.5 215.5q0 139 49.5 215.5t142.5 76.5q89 0 123 -84l-1 72h99l-1 -72q22 45 52.5 64.5t77.5 19.5
q90 0 142 -73q24 -34 36.5 -80t14.5 -80t2 -88zM130 279v-1q0 -90 28 -136.5t74 -46.5q32 0 53 14.5t31 43t13 57t3 69.5q0 62 -5 94t-21 53q-26 37 -74 37q-46 0 -74 -46.5t-28 -137.5zM440 329h211q-2 152 -110 152q-55 0 -80 -49q-21 -41 -21 -103z" />
    <glyph glyph-name="ccedilla" unicode="&#xe7;" horiz-adv-x="439" 
d="M259 -10l-22 -49q13 5 30 5q26 0 48 -21t22 -58q0 -38 -31.5 -61.5t-69.5 -23.5q-64 0 -97 37l21 37q22 -25 57 -25q21 0 35 10.5t14 25.5q0 13 -9.5 24t-20.5 11q-18 0 -29 -12l-36 15l39 86q-89 10 -137.5 88t-48.5 200q0 137 58 214.5t157 77.5q86 0 133 -62.5
t49 -155.5h-113q-6 116 -76 116q-48 0 -69 -44q-25 -49 -25 -146q0 -190 94 -190q72 0 77 115h113q-3 -86 -45 -147t-118 -67z" />
    <glyph glyph-name="egrave" unicode="&#xe8;" horiz-adv-x="491" 
d="M454 242h-301q0 -65 24.5 -109t74.5 -44q35 0 58.5 22t31.5 63h107q-15 -98 -76 -147q-52 -39 -121 -39q-106 0 -160.5 83t-54.5 208q0 129 56 210.5t158 81.5q104 0 158 -85q49 -80 45 -244zM153 335h193q-1 58 -23.5 102t-71.5 44q-45 0 -71.5 -39t-26.5 -107zM122 794
l225 -125l-38 -71l-229 109z" />
    <glyph glyph-name="eacute" unicode="&#xe9;" horiz-adv-x="491" 
d="M454 242h-301q0 -65 24.5 -109t74.5 -44q35 0 58.5 22t31.5 63h107q-15 -98 -76 -147q-52 -39 -121 -39q-106 0 -160.5 83t-54.5 208q0 129 56 210.5t158 81.5q104 0 158 -85q49 -80 45 -244zM153 335h193q-1 58 -23.5 102t-71.5 44q-45 0 -71.5 -39t-26.5 -107zM145 669
l225 125l42 -87l-229 -109z" />
    <glyph glyph-name="ecircumflex" unicode="&#xea;" horiz-adv-x="491" 
d="M454 242h-301q0 -65 24.5 -109t74.5 -44q35 0 58.5 22t31.5 63h107q-15 -98 -76 -147q-52 -39 -121 -39q-106 0 -160.5 83t-54.5 208q0 129 56 210.5t158 81.5q104 0 158 -85q49 -80 45 -244zM153 335h193q-1 58 -23.5 102t-71.5 44q-45 0 -71.5 -39t-26.5 -107zM298 761
l123 -138h-97l-78 84l-78 -84h-98l124 138h104z" />
    <glyph glyph-name="edieresis" unicode="&#xeb;" horiz-adv-x="491" 
d="M454 242h-301q0 -65 24.5 -109t74.5 -44q35 0 58.5 22t31.5 63h107q-15 -98 -76 -147q-52 -39 -121 -39q-106 0 -160.5 83t-54.5 208q0 129 56 210.5t158 81.5q104 0 158 -85q49 -80 45 -244zM153 335h193q-1 58 -23.5 102t-71.5 44q-45 0 -71.5 -39t-26.5 -107zM208 744
v-113h-102v113h102zM386 744v-113h-102v113h102z" />
    <glyph glyph-name="igrave" unicode="&#xec;" horiz-adv-x="254" 
d="M73 0v559h108v-559h-108zM16 794l224 -125l-38 -71l-228 109z" />
    <glyph glyph-name="iacute" unicode="&#xed;" horiz-adv-x="254" 
d="M73 0v559h108v-559h-108zM14 669l224 125l42 -87l-229 -109z" />
    <glyph glyph-name="icircumflex" unicode="&#xee;" horiz-adv-x="254" 
d="M73 0v559h108v-559h-108zM179 761l123 -138h-97l-78 84l-78 -84h-98l124 138h104z" />
    <glyph glyph-name="idieresis" unicode="&#xef;" horiz-adv-x="254" 
d="M73 0v559h108v-559h-108zM89 744v-113h-102v113h102zM267 744v-113h-102v113h102z" />
    <glyph glyph-name="eth" unicode="&#xf0;" horiz-adv-x="498" 
d="M236 585l-165 -65v87l110 43q-32 35 -85 64l101 37q48 -32 81 -64l160 64v-87l-104 -41q62 -68 90 -136q40 -96 40 -196q0 -146 -55.5 -224.5t-167.5 -78.5q-104 0 -156 72t-52 191q0 115 50.5 189.5t135.5 74.5q55 0 90 -42q-6 22 -27 56q-25 39 -46 56zM141 251v-1
q0 -161 100 -161q109 0 109 165q0 159 -105 159q-104 0 -104 -162z" />
    <glyph glyph-name="ntilde" unicode="&#xf1;" horiz-adv-x="499" 
d="M61 0v559h95q0 -45 -1 -69q36 81 133 81q151 0 151 -173v-398h-108v363q0 100 -75 100q-41 0 -64 -26t-23 -79v-358h-108zM397 744l42 -68q-41 -41 -97 -41q-46 0 -92 13q-40 14 -76 14q-42 0 -72 -28l-43 67q16 18 43 30.5t54 12.5q49 0 93 -13q40 -14 77 -14
q41 0 71 27z" />
    <glyph glyph-name="ograve" unicode="&#xf2;" horiz-adv-x="497" 
d="M33 279v1q0 127 55 209t161 82q105 0 160 -82t55 -210q0 -127 -55 -209t-160 -82q-106 0 -161 82t-55 209zM147 279v-1q0 -100 26 -144.5t77 -44.5q100 0 100 190q0 101 -26 145.5t-77 44.5q-100 0 -100 -190zM125 794l225 -125l-38 -71l-229 109z" />
    <glyph glyph-name="oacute" unicode="&#xf3;" horiz-adv-x="497" 
d="M33 279v1q0 127 55 209t161 82q105 0 160 -82t55 -210q0 -127 -55 -209t-160 -82q-106 0 -161 82t-55 209zM147 279v-1q0 -100 26 -144.5t77 -44.5q100 0 100 190q0 101 -26 145.5t-77 44.5q-100 0 -100 -190zM148 669l225 125l42 -87l-229 -109z" />
    <glyph glyph-name="ocircumflex" unicode="&#xf4;" horiz-adv-x="497" 
d="M33 279v1q0 127 55 209t161 82q105 0 160 -82t55 -210q0 -127 -55 -209t-160 -82q-106 0 -161 82t-55 209zM147 279v-1q0 -100 26 -144.5t77 -44.5q100 0 100 190q0 101 -26 145.5t-77 44.5q-100 0 -100 -190zM301 761l123 -138h-97l-78 84l-79 -84h-97l124 138h104z" />
    <glyph glyph-name="otilde" unicode="&#xf5;" horiz-adv-x="497" 
d="M33 279v1q0 127 55 209t161 82q105 0 160 -82t55 -210q0 -127 -55 -209t-160 -82q-106 0 -161 82t-55 209zM147 279v-1q0 -100 26 -144.5t77 -44.5q100 0 100 190q0 101 -26 145.5t-77 44.5q-100 0 -100 -190zM396 744l42 -68q-41 -41 -97 -41q-47 0 -91 13
q-40 14 -77 14q-41 0 -72 -28l-43 67q41 43 97 43q49 0 94 -13q38 -14 76 -14q41 0 71 27z" />
    <glyph glyph-name="odieresis" unicode="&#xf6;" horiz-adv-x="497" 
d="M33 279v1q0 127 55 209t161 82q105 0 160 -82t55 -210q0 -127 -55 -209t-160 -82q-106 0 -161 82t-55 209zM147 279v-1q0 -100 26 -144.5t77 -44.5q100 0 100 190q0 101 -26 145.5t-77 44.5q-100 0 -100 -190zM211 744v-113h-102v113h102zM389 744v-113h-103v113h103z
" />
    <glyph glyph-name="divide" unicode="&#xf7;" horiz-adv-x="576" 
d="M351 548v-141h-127v141h127zM42 203v99h492v-99h-492zM351 98v-141h-127v141h127z" />
    <glyph glyph-name="oslash" unicode="&#xf8;" horiz-adv-x="497" 
d="M417 580h89l-83 -116q41 -73 41 -185q0 -127 -55 -209t-160 -82q-76 0 -126 48l-43 -57h-89l83 117q-41 72 -41 183q0 128 55 210t161 82q76 0 125 -47zM153 208l160 226q-21 35 -66 35q-102 0 -102 -190q0 -34 8 -71zM344 352l-161 -226q22 -37 67 -37q102 0 102 190
q0 36 -8 73z" />
    <glyph glyph-name="ugrave" unicode="&#xf9;" horiz-adv-x="499" 
d="M438 559v-559h-99q0 48 1 74q-29 -86 -130 -86q-150 0 -150 173v398h108v-363q0 -101 75 -101q40 0 63.5 26.5t23.5 79.5v358h108zM118 794l225 -125l-38 -71l-229 109z" />
    <glyph glyph-name="uacute" unicode="&#xfa;" horiz-adv-x="499" 
d="M438 559v-559h-99q0 48 1 74q-29 -86 -130 -86q-150 0 -150 173v398h108v-363q0 -101 75 -101q40 0 63.5 26.5t23.5 79.5v358h108zM154 669l224 125l42 -87l-228 -109z" />
    <glyph glyph-name="ucircumflex" unicode="&#xfb;" horiz-adv-x="499" 
d="M438 559v-559h-99q0 48 1 74q-29 -86 -130 -86q-150 0 -150 173v398h108v-363q0 -101 75 -101q40 0 63.5 26.5t23.5 79.5v358h108zM301 761l124 -138h-97l-78 84l-79 -84h-97l124 138h103z" />
    <glyph glyph-name="udieresis" unicode="&#xfc;" horiz-adv-x="499" 
d="M438 559v-559h-99q0 48 1 74q-29 -86 -130 -86q-150 0 -150 173v398h108v-363q0 -101 75 -101q40 0 63.5 26.5t23.5 79.5v358h108zM212 744v-113h-103v113h103zM390 744v-113h-103v113h103z" />
    <glyph glyph-name="yacute" unicode="&#xfd;" horiz-adv-x="426" 
d="M90 -188l69 214l-155 533h113l97 -369l96 369h113l-223 -747h-110zM117 669l225 125l42 -87l-229 -109z" />
    <glyph glyph-name="thorn" unicode="&#xfe;" horiz-adv-x="496" 
d="M61 -188v928h109v-174q0 -12 -0.5 -32.5t-0.5 -30.5q10 29 39.5 48.5t73.5 19.5q81 0 131 -76t50 -216q0 -137 -47.5 -214t-133.5 -77q-39 0 -69 20t-45 55q0 -9 0.5 -32.5t0.5 -39.5v-179h-108zM355 279v1q0 183 -94 183q-39 0 -66 -38q-26 -35 -26 -146q0 -110 26 -145
q27 -39 66 -39q94 0 94 184z" />
    <glyph glyph-name="ydieresis" unicode="&#xff;" horiz-adv-x="426" 
d="M90 -188l69 214l-155 533h113l97 -369l96 369h113l-223 -747h-110zM176 744v-113h-103v113h103zM353 744v-113h-102v113h102z" />
    <glyph glyph-name="dotlessi" unicode="&#x131;" horiz-adv-x="254" 
d="M73 0v559h108v-559h-108z" />
    <glyph glyph-name="Lslash" unicode="&#x141;" horiz-adv-x="426" 
d="M1 201v118l69 48v373h122v-289l135 94v-118l-135 -94v-220h211v-113h-333v249z" />
    <glyph glyph-name="lslash" unicode="&#x142;" horiz-adv-x="254" 
d="M73 333l-77 -63v91l77 62v317h108v-229l77 63v-90l-77 -63v-421h-108v333z" />
    <glyph glyph-name="OE" unicode="&#x152;" horiz-adv-x="900" 
d="M583 627v-187h252v-112h-252v-215h252v-113h-358v48q1 17 1 50q-52 -112 -176 -112q-120 0 -193.5 100.5t-73.5 283.5t73.5 283.5t193.5 100.5q124 0 176 -110q0 33 -1 50v46h358v-113h-252zM160 364v-1q0 -127 43 -195t109 -68q71 0 110 60t39 204q0 152 -39 214
t-112 62q-65 0 -107.5 -70.5t-42.5 -205.5z" />
    <glyph glyph-name="oe" unicode="&#x153;" horiz-adv-x="795" 
d="M767 250h-308q0 -161 100 -161q37 0 62 22t34 63h108q-15 -99 -77 -147q-52 -39 -120 -39q-118 0 -165 110q-39 -110 -163 -110q-100 0 -153.5 82t-53.5 209q0 128 54.5 210t157.5 82q118 0 159 -104q45 104 167 104q101 0 153 -84q21 -33 31.5 -77.5t12 -76t1.5 -83.5z
M145 279v-1q0 -100 26 -144.5t77 -44.5t77 44.5t26 145.5t-26.5 145.5t-79.5 44.5q-100 0 -100 -190zM459 329h200q-2 152 -100 152q-53 0 -76 -44t-24 -108z" />
    <glyph glyph-name="Scaron" unicode="&#x160;" horiz-adv-x="532" 
d="M35 222h121q7 -128 109 -128q49 0 78 29.5t29 80.5q0 15 -4 28.5t-10 23t-17.5 19t-20 15t-25.5 13t-26.5 11t-30 10.5t-28.5 10q-35 14 -57.5 26.5t-50 35t-41.5 57.5t-14 80q-1 102 57.5 162t156.5 60q192 0 221 -203h-118q-3 44 -27.5 72.5t-70.5 28.5
q-43 0 -68.5 -28.5t-25.5 -72.5q0 -17 3.5 -30.5t14.5 -25t18.5 -18.5t27.5 -16t28.5 -12.5t35.5 -13t35 -12.5q33 -13 56.5 -26.5t50 -38t41 -63t14.5 -89.5q0 -100 -65.5 -160.5t-167.5 -60.5q-111 0 -169.5 60.5t-59.5 175.5zM92 923h97l77 -84l77 84h97l-122 -137h-104z
" />
    <glyph glyph-name="scaron" unicode="&#x161;" horiz-adv-x="428" 
d="M385 401h-108q-1 76 -71 76q-27 0 -43.5 -16t-16.5 -42q0 -11 3 -20.5t11 -16.5t14 -12t20.5 -10.5t21.5 -8t27 -8.5t27 -8q58 -19 93.5 -56.5t35.5 -113.5q0 -77 -53 -127t-133 -50q-82 0 -134 47t-59 138h108q1 -40 25 -63.5t62 -23.5q35 0 52.5 20.5t17.5 51.5
q0 9 -1.5 17t-6.5 14.5t-9 11.5t-13.5 10.5t-14.5 8.5t-18.5 8t-18.5 7t-21.5 7t-21.5 7q-59 20 -93.5 56.5t-34.5 109.5q0 70 47.5 113t130.5 43q165 0 175 -170zM40 758h97l77 -84l77 84h97l-122 -137h-104z" />
    <glyph glyph-name="Ydieresis" unicode="&#x178;" horiz-adv-x="480" 
d="M179 0v286l-183 454h126l119 -339l117 339h126l-183 -454v-286h-122zM203 910v-113h-103v113h103zM380 910v-113h-102v113h102z" />
    <glyph glyph-name="Zcaron" unicode="&#x17d;" horiz-adv-x="495" 
d="M452 630l-275 -517h279v-113h-421v106l274 521h-260v113h403v-110zM78 921h97l77 -84l78 84h96l-121 -138h-105z" />
    <glyph glyph-name="zcaron" unicode="&#x17e;" horiz-adv-x="426" 
d="M25 0v101l229 356h-210v102h338v-102l-225 -355h229v-102h-361zM34 755h97l77 -85l77 85h97l-122 -138h-104z" />
    <glyph glyph-name="florin" unicode="&#x192;" 
d="M345 463h145v-95h-148l-35 -290q-7 -79 -17.5 -125t-34.5 -79q-51 -71 -164 -71q-35 0 -95 14l24 110q37 -11 67 -11q51 0 72.5 32.5t27.5 96.5l36 323h-140v95h142q13 163 73 228q54 61 148 61q44 0 91 -13l-24 -109q-42 10 -52 10q-54 -2 -79 -33q-30 -38 -37 -144z
" />
    <glyph glyph-name="circumflex" unicode="&#x2c6;" horiz-adv-x="332" 
d="M218 761l123 -138h-97l-78 84l-78 -84h-98l124 138h104z" />
    <glyph glyph-name="caron" unicode="&#x2c7;" horiz-adv-x="332" 
d="M-8 758h97l77 -84l77 84h97l-122 -137h-104z" />
    <glyph glyph-name="uni02C9" unicode="&#x2c9;" horiz-adv-x="332" 
d="M336 721v-72h-340v72h340z" />
    <glyph glyph-name="breve" unicode="&#x2d8;" horiz-adv-x="332" 
d="M-4 756h75q15 -66 97 -66q79 0 93 66h76q-21 -136 -176 -136q-66 0 -111 34.5t-54 101.5z" />
    <glyph glyph-name="dotaccent" unicode="&#x2d9;" horiz-adv-x="270" 
d="M186 744v-113h-102v113h102z" />
    <glyph glyph-name="ring" unicode="&#x2da;" horiz-adv-x="271" 
d="M135 821h1q45 0 76.5 -32t31.5 -76q0 -45 -32 -77t-77 -32t-76.5 32t-31.5 77q0 44 31.5 76t76.5 32zM135 766h-1q-22 0 -37 -15.5t-15 -37.5q0 -23 15 -38t38 -15t38.5 15t15.5 38t-15.5 38t-38.5 15z" />
    <glyph glyph-name="ogonek" unicode="&#x2db;" horiz-adv-x="254" 
d="M141 11l71 8q-70 -57 -70 -96q0 -23 14 -38.5t36 -15.5q20 0 53 12v-64q-36 -23 -82 -23q-47 0 -75.5 28t-28.5 69q0 31 19 58.5t63 61.5z" />
    <glyph glyph-name="tilde" unicode="&#x2dc;" horiz-adv-x="332" 
d="M313 744l43 -68q-41 -41 -98 -41q-47 0 -91 13q-40 14 -77 14q-41 0 -72 -28l-42 67q16 18 43 30.5t54 12.5q47 0 93 -13q40 -14 77 -14q42 0 70 27z" />
    <glyph glyph-name="hungarumlaut" unicode="&#x2dd;" horiz-adv-x="332" 
d="M18 657l150 135l65 -64l-161 -127zM217 657l151 135l64 -64l-161 -127z" />
    <glyph glyph-name="uni03A9" unicode="&#x3a9;" horiz-adv-x="688" 
d="M176 91v3q-53 55 -87.5 134.5t-34.5 175.5q0 147 82.5 245.5t210.5 98.5q88 0 154.5 -50.5t98.5 -126t32 -160.5q0 -99 -36 -182.5t-88 -134.5v-3h138v-91h-247v66q53 38 88.5 121t35.5 200q0 108 -47 187.5t-131 79.5q-83 0 -132.5 -76.5t-49.5 -194.5
q0 -109 36.5 -194.5t87.5 -122.5v-66h-247v91h136z" />
    <glyph glyph-name="uni03BC" unicode="&#x3bc;" horiz-adv-x="500" 
d="M61 -180v739h108v-360q0 -53 17 -80q17 -24 53 -24q44 0 67 27q25 30 25 90v347h108v-559h-99q0 53 1 80q-10 -39 -43 -65.5t-82 -26.5q-36 0 -47 22v-59v-131h-108z" />
    <glyph glyph-name="pi" unicode="&#x3c0;" horiz-adv-x="579" 
d="M554 456h-72v-305q0 -97 14 -151h-104q-17 32 -17 146v310h-149q-4 -102 -23 -240.5t-44 -215.5h-104q25 88 44 223t21 233q-67 0 -100 -11l-13 74q43 33 154 33h402z" />
    <glyph glyph-name="endash" unicode="&#x2013;" horiz-adv-x="500" 
d="M9 336h482v-106h-482v106z" />
    <glyph glyph-name="emdash" unicode="&#x2014;" horiz-adv-x="1000" 
d="M9 336h982v-106h-982v106z" />
    <glyph glyph-name="quoteleft" unicode="&#x2018;" horiz-adv-x="235" 
d="M133 740l79 -227h-99l-96 227h116z" />
    <glyph glyph-name="quoteright" unicode="&#x2019;" horiz-adv-x="235" 
d="M23 513l80 227h115l-96 -227h-99z" />
    <glyph glyph-name="quotesinglbase" unicode="&#x201a;" horiz-adv-x="235" 
d="M23 -95l80 227h115l-96 -227h-99z" />
    <glyph glyph-name="quotedblleft" unicode="&#x201c;" horiz-adv-x="426" 
d="M147 740l79 -227h-99l-96 227h116zM309 740l79 -227h-99l-96 227h116z" />
    <glyph glyph-name="quotedblright" unicode="&#x201d;" horiz-adv-x="426" 
d="M38 513l79 227h116l-96 -227h-99zM200 513l79 227h116l-96 -227h-99z" />
    <glyph glyph-name="quotedblbase" unicode="&#x201e;" horiz-adv-x="426" 
d="M38 -95l79 227h116l-96 -227h-99zM200 -95l79 227h116l-96 -227h-99z" />
    <glyph glyph-name="dagger" unicode="&#x2020;" horiz-adv-x="500" 
d="M303 740v-182h145v-103h-145v-555h-107v555h-144v103h144v182h107z" />
    <glyph glyph-name="daggerdbl" unicode="&#x2021;" horiz-adv-x="500" 
d="M304 740v-175h144v-103h-144v-284h144v-103h-144v-175h-107v175h-145v103h145v284h-145v103h145v175h107z" />
    <glyph glyph-name="bullet" unicode="&#x2022;" horiz-adv-x="470" 
d="M235 522h1q66 0 112 -46t45 -111q1 -65 -45 -111.5t-113 -46.5t-113 46.5t-45 111.5q-1 65 45 111t113 46z" />
    <glyph glyph-name="ellipsis" unicode="&#x2026;" horiz-adv-x="1000" 
d="M113 0v132h108v-132h-108zM446 0v132h108v-132h-108zM779 0v132h108v-132h-108z" />
    <glyph glyph-name="perthousand" unicode="&#x2030;" horiz-adv-x="1023" 
d="M22 576v1q0 84 43 129.5t110 45.5t110 -46t43 -130q0 -85 -43 -131t-110 -46t-110 46t-43 131zM97 576v-1q0 -49 21 -76t57 -27t57 27t21 77q0 49 -21 76.5t-57 27.5t-57 -27.5t-21 -76.5zM356 164v1q0 84 43 130t110 46t110 -46t43 -131q0 -84 -43 -130t-110 -46
t-110 46t-43 130zM431 164v-1q0 -49 21 -76t57 -27t57 27.5t21 76.5q0 50 -21 77t-57 27t-57 -27t-21 -77zM695 164v1q0 84 43 130t110 46t110 -46t43 -131q0 -84 -43 -130t-110 -46t-110 46t-43 130zM769 164v-1q0 -49 21.5 -76t57.5 -27q35 0 56.5 27.5t21.5 76.5
q0 50 -21.5 77t-56.5 27q-36 0 -57.5 -27t-21.5 -77zM583 749l-389 -758h-94l389 758h94z" />
    <glyph glyph-name="guilsinglleft" unicode="&#x2039;" horiz-adv-x="271" 
d="M36 282l102 185h97l-102 -185l102 -184h-97z" />
    <glyph glyph-name="guilsinglright" unicode="&#x203a;" horiz-adv-x="271" 
d="M132 467l102 -185l-102 -184h-96l102 184l-102 185h96z" />
    <glyph glyph-name="fraction" unicode="&#x2044;" horiz-adv-x="146" 
d="M-162 -9l386 758h85l-387 -758h-84z" />
    <glyph glyph-name="Euro" unicode="&#x20ac;" horiz-adv-x="556" 
d="M409 338l-16 -86h-166q19 -148 107 -148q35 0 55 16.5t34 68.5h113q-32 -201 -208 -201q-104 0 -157.5 68.5t-67.5 195.5h-98l16 86h76v24v31h-92l16 86h84q17 118 72.5 187.5t154.5 69.5q52 0 91 -19t61 -51t33.5 -65t16.5 -71h-112q-16 90 -90 90q-83 0 -104 -141h207
l-16 -86h-198v-31v-24h188z" />
    <glyph glyph-name="afii61289" unicode="&#x2113;" horiz-adv-x="493" 
d="M429 174l45 -45q-68 -137 -194 -137q-85 0 -127 51.5t-47 132.5v13q-20 -18 -53 -45l-28 60q71 64 80 73v277q0 130 48 194t120 64q64 0 97 -49.5t33 -129.5q0 -170 -194 -371v-46q1 -68 27 -102.5t67 -34.5q70 0 126 95zM209 552v-185q127 153 127 269q0 95 -59 95
q-28 0 -48 -42.5t-20 -136.5z" />
    <glyph glyph-name="trademark" unicode="&#x2122;" horiz-adv-x="978" 
d="M410 310v430h132l120 -284l121 284h130v-430h-91v309l-124 -309h-73l-123 308v-308h-92zM141 310v352h-118v78h336v-78h-118v-352h-100z" />
    <glyph glyph-name="Omega" unicode="&#x2126;" horiz-adv-x="688" 
d="M176 91v3q-53 55 -87.5 134.5t-34.5 175.5q0 147 82.5 245.5t210.5 98.5q88 0 154.5 -50.5t98.5 -126t32 -160.5q0 -99 -36 -182.5t-88 -134.5v-3h138v-91h-247v66q53 38 88.5 121t35.5 200q0 108 -47 187.5t-131 79.5q-83 0 -132.5 -76.5t-49.5 -194.5
q0 -109 36.5 -194.5t87.5 -122.5v-66h-247v91h136z" />
    <glyph glyph-name="estimated" unicode="&#x212e;" horiz-adv-x="921" 
d="M884 359h-687q-5 0 -5 -4v-208q0 -13 9 -24q108 -113 260 -113q162 0 273 127h61q-58 -69 -146.5 -108.5t-189.5 -39.5q-175 0 -299 111.5t-124 269.5t124 270t299 112q177 0 301 -112t124 -270v-11zM728 386v210q0 15 -10 24q-109 109 -257 109q-150 0 -259 -112
q-10 -10 -10 -26v-205q0 -6 5 -6h527q4 0 4 6z" />
    <glyph glyph-name="partialdiff" unicode="&#x2202;" horiz-adv-x="555" 
d="M103 689l-32 84q74 58 173 58q110 0 186 -102.5t76 -295.5q0 -202 -70.5 -321t-197.5 -119q-63 0 -109.5 37t-67.5 91.5t-21 117.5q0 124 62 199.5t150 75.5q54 0 92.5 -27.5t54.5 -56.5h1q1 10 1 38q0 113 -48.5 192t-122.5 79q-68 0 -127 -50zM248 86h1q56 0 94 73
t47 172q-11 34 -42.5 63.5t-75.5 29.5q-53 0 -89 -56t-36 -133q0 -65 27.5 -107t73.5 -42z" />
    <glyph glyph-name="Delta" unicode="&#x2206;" horiz-adv-x="639" 
d="M29 0v68l230 685h126l224 -684v-69h-580zM138 90h357l-117 340q-7 24 -29.5 95t-28.5 98h-4q-5 -23 -26.5 -89.5t-27.5 -88.5z" />
    <glyph glyph-name="product" unicode="&#x220f;" horiz-adv-x="702" 
d="M674 636h-100v-738h-107v738h-233v-738h-107v738h-101v100h648v-100z" />
    <glyph glyph-name="summation" unicode="&#x2211;" horiz-adv-x="546" 
d="M525 -102h-501v73l246 347l-237 341v77h476v-93h-332v-4l215 -302l-238 -332v-3h371v-104z" />
    <glyph glyph-name="minus" unicode="&#x2212;" horiz-adv-x="576" 
d="M42 203v99h492v-99h-492z" />
    <glyph glyph-name="uni2215" unicode="&#x2215;" horiz-adv-x="146" 
d="M-162 -9l386 758h85l-387 -758h-84z" />
    <glyph glyph-name="uni2219" unicode="&#x2219;" horiz-adv-x="270" 
d="M198 324v-141h-126v141h126z" />
    <glyph glyph-name="radical" unicode="&#x221a;" horiz-adv-x="580" 
d="M582 882l-219 -1032h-89l-149 472l-73 -29l-19 64l158 63l108 -348q3 -12 7 -31.5t7 -34t5 -23.5l1 -1q9 63 15 93l172 807h76z" />
    <glyph glyph-name="infinity" unicode="&#x221e;" horiz-adv-x="785" 
d="M736 306v-2q0 -76 -47.5 -123t-112.5 -47q-47 0 -89.5 26.5t-92.5 89.5q-48 -57 -90.5 -86.5t-98.5 -29.5q-64 0 -110 47.5t-46 118.5q0 74 46.5 121.5t117.5 47.5q53 0 96 -29.5t88 -85.5q3 3 9 10q30 34 48.5 51.5t54 35.5t73.5 18q67 0 110.5 -45.5t43.5 -117.5z
M214 196h1q26 0 53.5 16t42.5 31.5t41 45.5q5 5 7 8q-20 26 -26.5 34t-24.5 28t-30 27t-30.5 14.5t-38.5 7.5q-44 0 -69.5 -31t-25.5 -78q0 -43 28.5 -73t71.5 -30zM576 408h-1q-15 0 -31 -6t-27.5 -12.5t-26.5 -20.5t-22 -21.5t-21.5 -24.5t-17.5 -20q51 -61 81.5 -84
t68.5 -23q42 0 67 32.5t25 71.5q0 49 -26.5 78.5t-68.5 29.5z" />
    <glyph glyph-name="integral" unicode="&#x222b;" horiz-adv-x="387" 
d="M363 894l-13 -77q-16 9 -35 9q-33 0 -49 -26q-30 -38 -30 -181q0 -83 7 -253.5t7 -263.5q0 -144 -39 -212q-35 -67 -118 -67q-42 0 -72 16l15 80q25 -11 43 -11q28 0 44 23q29 40 29 170q0 94 -7 268t-7 260q0 91 13 144.5t44 87.5q40 46 109 46q35 0 59 -13z" />
    <glyph glyph-name="approxequal" unicode="&#x2248;" horiz-adv-x="548" 
d="M466 462l40 -35q-49 -104 -132 -104q-27 0 -50 9t-62 32q-55 35 -88 35q-21 0 -39 -12t-28 -25t-26 -37l-41 35q22 46 59.5 74t81.5 28q10 0 19.5 -1t19 -4t16 -5.5t15.5 -7t13 -7t13 -8t11 -6.5q5 -3 16 -9.5t15.5 -9t13.5 -7t14.5 -6t13 -3t15.5 -1.5q27 0 47.5 18.5
t42.5 56.5zM466 279l40 -35q-50 -103 -132 -103q-44 0 -112 41q-57 35 -88 35q-21 0 -39.5 -12.5t-28 -25t-25.5 -37.5l-41 35q22 46 59.5 74.5t81.5 28.5q14 0 26.5 -2t26 -7.5t19.5 -8.5t20 -11t15 -9q4 -3 15 -9.5t15.5 -9t13.5 -7t14.5 -6.5t13.5 -3.5t16 -1.5
q28 0 47.5 18t42.5 56z" />
    <glyph glyph-name="notequal" unicode="&#x2260;" horiz-adv-x="548" 
d="M398 528l-41 -93h141v-66h-165l-61 -141h226v-65h-251l-50 -115l-51 21l41 94h-138v65h163l61 141h-224v66h248l50 113z" />
    <glyph glyph-name="lessequal" unicode="&#x2264;" horiz-adv-x="548" 
d="M496 105l-442 229v70l441 229v-78l-375 -184v-2l376 -186v-78zM499 -1h-449v66h449v-66z" />
    <glyph glyph-name="greaterequal" unicode="&#x2265;" horiz-adv-x="548" 
d="M56 633l441 -229v-70l-441 -229v78l376 185v2l-376 185v78zM498 -1h-447v66h447v-66z" />
    <glyph glyph-name="lozenge" unicode="&#x25ca;" horiz-adv-x="580" 
d="M527 368l-196 -416h-88l-191 416l196 416h88zM431 365l-120 263q-10 25 -19 63h-3q-11 -42 -20 -63l-121 -258l122 -266q12 -38 17 -61h4q7 35 17 59z" />
    </font>
</defs>
</svg>
